<svg width="1363" height="163" viewBox="0 0 1363 163" fill="none" xmlns="http://www.w3.org/2000/svg">
<path d="M0 15C0 6.71573 6.71573 0 15 0H37V163H15C6.71573 163 0 156.284 0 148V15Z" fill="#424242"/>
<rect width="1097" height="163" transform="translate(37)" fill="#F0F0F0"/>
<path d="M96.1289 43.9375H99.1055L103.488 56.4648L107.871 43.9375H110.848L104.684 61H102.293L96.1289 43.9375ZM94.5234 43.9375H97.4883L98.0273 56.1484V61H94.5234V43.9375ZM109.488 43.9375H112.465V61H108.949V56.1484L109.488 43.9375ZM121.172 61.2344C120.188 61.2344 119.305 61.0781 118.523 60.7656C117.742 60.4453 117.078 60.0039 116.531 59.4414C115.992 58.8789 115.578 58.2266 115.289 57.4844C115 56.7344 114.855 55.9375 114.855 55.0938V54.625C114.855 53.6641 114.992 52.7852 115.266 51.9883C115.539 51.1914 115.93 50.5 116.438 49.9141C116.953 49.3281 117.578 48.8789 118.312 48.5664C119.047 48.2461 119.875 48.0859 120.797 48.0859C121.695 48.0859 122.492 48.2344 123.188 48.5312C123.883 48.8281 124.465 49.25 124.934 49.7969C125.41 50.3438 125.77 51 126.012 51.7656C126.254 52.5234 126.375 53.3672 126.375 54.2969V55.7031H116.297V53.4531H123.059V53.1953C123.059 52.7266 122.973 52.3086 122.801 51.9414C122.637 51.5664 122.387 51.2695 122.051 51.0508C121.715 50.832 121.285 50.7227 120.762 50.7227C120.316 50.7227 119.934 50.8203 119.613 51.0156C119.293 51.2109 119.031 51.4844 118.828 51.8359C118.633 52.1875 118.484 52.6016 118.383 53.0781C118.289 53.5469 118.242 54.0625 118.242 54.625V55.0938C118.242 55.6016 118.312 56.0703 118.453 56.5C118.602 56.9297 118.809 57.3008 119.074 57.6133C119.348 57.9258 119.676 58.168 120.059 58.3398C120.449 58.5117 120.891 58.5977 121.383 58.5977C121.992 58.5977 122.559 58.4805 123.082 58.2461C123.613 58.0039 124.07 57.6406 124.453 57.1562L126.094 58.9375C125.828 59.3203 125.465 59.6875 125.004 60.0391C124.551 60.3906 124.004 60.6797 123.363 60.9062C122.723 61.125 121.992 61.2344 121.172 61.2344ZM131.672 50.9453V61H128.285V48.3203H131.461L131.672 50.9453ZM131.203 54.2148H130.266C130.266 53.332 130.371 52.5195 130.582 51.7773C130.801 51.0273 131.117 50.3789 131.531 49.832C131.953 49.2773 132.473 48.8477 133.09 48.543C133.707 48.2383 134.422 48.0859 135.234 48.0859C135.797 48.0859 136.312 48.1719 136.781 48.3438C137.25 48.5078 137.652 48.7695 137.988 49.1289C138.332 49.4805 138.598 49.9414 138.785 50.5117C138.973 51.0742 139.066 51.75 139.066 52.5391V61H135.691V52.9141C135.691 52.3359 135.613 51.8906 135.457 51.5781C135.301 51.2656 135.078 51.0469 134.789 50.9219C134.508 50.7969 134.168 50.7344 133.77 50.7344C133.332 50.7344 132.949 50.8242 132.621 51.0039C132.301 51.1836 132.035 51.4336 131.824 51.7539C131.613 52.0664 131.457 52.4336 131.355 52.8555C131.254 53.2773 131.203 53.7305 131.203 54.2148ZM138.75 53.8281L137.543 53.9805C137.543 53.1523 137.645 52.3828 137.848 51.6719C138.059 50.9609 138.367 50.3359 138.773 49.7969C139.188 49.2578 139.699 48.8398 140.309 48.543C140.918 48.2383 141.621 48.0859 142.418 48.0859C143.027 48.0859 143.582 48.1758 144.082 48.3555C144.582 48.5273 145.008 48.8047 145.359 49.1875C145.719 49.5625 145.992 50.0547 146.18 50.6641C146.375 51.2734 146.473 52.0195 146.473 52.9023V61H143.086V52.9023C143.086 52.3164 143.008 51.8711 142.852 51.5664C142.703 51.2539 142.484 51.0391 142.195 50.9219C141.914 50.7969 141.578 50.7344 141.188 50.7344C140.781 50.7344 140.426 50.8164 140.121 50.9805C139.816 51.1367 139.562 51.3555 139.359 51.6367C139.156 51.918 139.004 52.2461 138.902 52.6211C138.801 52.9883 138.75 53.3906 138.75 53.8281ZM154.922 61.2344C153.938 61.2344 153.055 61.0781 152.273 60.7656C151.492 60.4453 150.828 60.0039 150.281 59.4414C149.742 58.8789 149.328 58.2266 149.039 57.4844C148.75 56.7344 148.605 55.9375 148.605 55.0938V54.625C148.605 53.6641 148.742 52.7852 149.016 51.9883C149.289 51.1914 149.68 50.5 150.188 49.9141C150.703 49.3281 151.328 48.8789 152.062 48.5664C152.797 48.2461 153.625 48.0859 154.547 48.0859C155.445 48.0859 156.242 48.2344 156.938 48.5312C157.633 48.8281 158.215 49.25 158.684 49.7969C159.16 50.3438 159.52 51 159.762 51.7656C160.004 52.5234 160.125 53.3672 160.125 54.2969V55.7031H150.047V53.4531H156.809V53.1953C156.809 52.7266 156.723 52.3086 156.551 51.9414C156.387 51.5664 156.137 51.2695 155.801 51.0508C155.465 50.832 155.035 50.7227 154.512 50.7227C154.066 50.7227 153.684 50.8203 153.363 51.0156C153.043 51.2109 152.781 51.4844 152.578 51.8359C152.383 52.1875 152.234 52.6016 152.133 53.0781C152.039 53.5469 151.992 54.0625 151.992 54.625V55.0938C151.992 55.6016 152.062 56.0703 152.203 56.5C152.352 56.9297 152.559 57.3008 152.824 57.6133C153.098 57.9258 153.426 58.168 153.809 58.3398C154.199 58.5117 154.641 58.5977 155.133 58.5977C155.742 58.5977 156.309 58.4805 156.832 58.2461C157.363 58.0039 157.82 57.6406 158.203 57.1562L159.844 58.9375C159.578 59.3203 159.215 59.6875 158.754 60.0391C158.301 60.3906 157.754 60.6797 157.113 60.9062C156.473 61.125 155.742 61.2344 154.922 61.2344ZM175.781 52.082V58.8438C175.516 59.1641 175.105 59.5117 174.551 59.8867C173.996 60.2539 173.281 60.5703 172.406 60.8359C171.531 61.1016 170.473 61.2344 169.23 61.2344C168.129 61.2344 167.125 61.0547 166.219 60.6953C165.312 60.3281 164.531 59.793 163.875 59.0898C163.227 58.3867 162.727 57.5273 162.375 56.5117C162.023 55.4883 161.848 54.3203 161.848 53.0078V51.9414C161.848 50.6289 162.016 49.4609 162.352 48.4375C162.695 47.4141 163.184 46.5508 163.816 45.8477C164.449 45.1445 165.203 44.6094 166.078 44.2422C166.953 43.875 167.926 43.6914 168.996 43.6914C170.48 43.6914 171.699 43.9336 172.652 44.418C173.605 44.8945 174.332 45.5586 174.832 46.4102C175.34 47.2539 175.652 48.2227 175.77 49.3164H172.359C172.273 48.7383 172.109 48.2344 171.867 47.8047C171.625 47.375 171.277 47.0391 170.824 46.7969C170.379 46.5547 169.801 46.4336 169.09 46.4336C168.504 46.4336 167.98 46.5547 167.52 46.7969C167.066 47.0312 166.684 47.3789 166.371 47.8398C166.059 48.3008 165.82 48.8711 165.656 49.5508C165.492 50.2305 165.41 51.0195 165.41 51.918V53.0078C165.41 53.8984 165.496 54.6875 165.668 55.375C165.84 56.0547 166.094 56.6289 166.43 57.0977C166.773 57.5586 167.195 57.9062 167.695 58.1406C168.195 58.375 168.777 58.4922 169.441 58.4922C169.996 58.4922 170.457 58.4453 170.824 58.3516C171.199 58.2578 171.5 58.1445 171.727 58.0117C171.961 57.8711 172.141 57.7383 172.266 57.6133V54.5898H169.055V52.082H175.781ZM184.242 61.2344C183.258 61.2344 182.375 61.0781 181.594 60.7656C180.812 60.4453 180.148 60.0039 179.602 59.4414C179.062 58.8789 178.648 58.2266 178.359 57.4844C178.07 56.7344 177.926 55.9375 177.926 55.0938V54.625C177.926 53.6641 178.062 52.7852 178.336 51.9883C178.609 51.1914 179 50.5 179.508 49.9141C180.023 49.3281 180.648 48.8789 181.383 48.5664C182.117 48.2461 182.945 48.0859 183.867 48.0859C184.766 48.0859 185.562 48.2344 186.258 48.5312C186.953 48.8281 187.535 49.25 188.004 49.7969C188.48 50.3438 188.84 51 189.082 51.7656C189.324 52.5234 189.445 53.3672 189.445 54.2969V55.7031H179.367V53.4531H186.129V53.1953C186.129 52.7266 186.043 52.3086 185.871 51.9414C185.707 51.5664 185.457 51.2695 185.121 51.0508C184.785 50.832 184.355 50.7227 183.832 50.7227C183.387 50.7227 183.004 50.8203 182.684 51.0156C182.363 51.2109 182.102 51.4844 181.898 51.8359C181.703 52.1875 181.555 52.6016 181.453 53.0781C181.359 53.5469 181.312 54.0625 181.312 54.625V55.0938C181.312 55.6016 181.383 56.0703 181.523 56.5C181.672 56.9297 181.879 57.3008 182.145 57.6133C182.418 57.9258 182.746 58.168 183.129 58.3398C183.52 58.5117 183.961 58.5977 184.453 58.5977C185.062 58.5977 185.629 58.4805 186.152 58.2461C186.684 58.0039 187.141 57.6406 187.523 57.1562L189.164 58.9375C188.898 59.3203 188.535 59.6875 188.074 60.0391C187.621 60.3906 187.074 60.6797 186.434 60.9062C185.793 61.125 185.062 61.2344 184.242 61.2344ZM194.672 51.0273V61H191.297V48.3203H194.461L194.672 51.0273ZM194.18 54.2148H193.266C193.266 53.2773 193.387 52.4336 193.629 51.6836C193.871 50.9258 194.211 50.2812 194.648 49.75C195.086 49.2109 195.605 48.8008 196.207 48.5195C196.816 48.2305 197.496 48.0859 198.246 48.0859C198.84 48.0859 199.383 48.1719 199.875 48.3438C200.367 48.5156 200.789 48.7891 201.141 49.1641C201.5 49.5391 201.773 50.0352 201.961 50.6523C202.156 51.2695 202.254 52.0234 202.254 52.9141V61H198.855V52.9023C198.855 52.3398 198.777 51.9023 198.621 51.5898C198.465 51.2773 198.234 51.0586 197.93 50.9336C197.633 50.8008 197.266 50.7344 196.828 50.7344C196.375 50.7344 195.98 50.8242 195.645 51.0039C195.316 51.1836 195.043 51.4336 194.824 51.7539C194.613 52.0664 194.453 52.4336 194.344 52.8555C194.234 53.2773 194.18 53.7305 194.18 54.2148ZM210.656 61.2344C209.672 61.2344 208.789 61.0781 208.008 60.7656C207.227 60.4453 206.562 60.0039 206.016 59.4414C205.477 58.8789 205.062 58.2266 204.773 57.4844C204.484 56.7344 204.34 55.9375 204.34 55.0938V54.625C204.34 53.6641 204.477 52.7852 204.75 51.9883C205.023 51.1914 205.414 50.5 205.922 49.9141C206.438 49.3281 207.062 48.8789 207.797 48.5664C208.531 48.2461 209.359 48.0859 210.281 48.0859C211.18 48.0859 211.977 48.2344 212.672 48.5312C213.367 48.8281 213.949 49.25 214.418 49.7969C214.895 50.3438 215.254 51 215.496 51.7656C215.738 52.5234 215.859 53.3672 215.859 54.2969V55.7031H205.781V53.4531H212.543V53.1953C212.543 52.7266 212.457 52.3086 212.285 51.9414C212.121 51.5664 211.871 51.2695 211.535 51.0508C211.199 50.832 210.77 50.7227 210.246 50.7227C209.801 50.7227 209.418 50.8203 209.098 51.0156C208.777 51.2109 208.516 51.4844 208.312 51.8359C208.117 52.1875 207.969 52.6016 207.867 53.0781C207.773 53.5469 207.727 54.0625 207.727 54.625V55.0938C207.727 55.6016 207.797 56.0703 207.938 56.5C208.086 56.9297 208.293 57.3008 208.559 57.6133C208.832 57.9258 209.16 58.168 209.543 58.3398C209.934 58.5117 210.375 58.5977 210.867 58.5977C211.477 58.5977 212.043 58.4805 212.566 58.2461C213.098 58.0039 213.555 57.6406 213.938 57.1562L215.578 58.9375C215.312 59.3203 214.949 59.6875 214.488 60.0391C214.035 60.3906 213.488 60.6797 212.848 60.9062C212.207 61.125 211.477 61.2344 210.656 61.2344ZM221.156 51.0859V61H217.781V48.3203H220.957L221.156 51.0859ZM224.977 48.2383L224.918 51.3672C224.754 51.3438 224.555 51.3242 224.32 51.3086C224.094 51.2852 223.887 51.2734 223.699 51.2734C223.223 51.2734 222.809 51.3359 222.457 51.4609C222.113 51.5781 221.824 51.7539 221.59 51.9883C221.363 52.2227 221.191 52.5078 221.074 52.8438C220.965 53.1797 220.902 53.5625 220.887 53.9922L220.207 53.7812C220.207 52.9609 220.289 52.207 220.453 51.5195C220.617 50.8242 220.855 50.2188 221.168 49.7031C221.488 49.1875 221.879 48.7891 222.34 48.5078C222.801 48.2266 223.328 48.0859 223.922 48.0859C224.109 48.0859 224.301 48.1016 224.496 48.1328C224.691 48.1562 224.852 48.1914 224.977 48.2383ZM233.016 58.1406V52.4922C233.016 52.0859 232.949 51.7383 232.816 51.4492C232.684 51.1523 232.477 50.9219 232.195 50.7578C231.922 50.5938 231.566 50.5117 231.129 50.5117C230.754 50.5117 230.43 50.5781 230.156 50.7109C229.883 50.8359 229.672 51.0195 229.523 51.2617C229.375 51.4961 229.301 51.7734 229.301 52.0938H225.926C225.926 51.5547 226.051 51.043 226.301 50.5586C226.551 50.0742 226.914 49.6484 227.391 49.2812C227.867 48.9062 228.434 48.6133 229.09 48.4023C229.754 48.1914 230.496 48.0859 231.316 48.0859C232.301 48.0859 233.176 48.25 233.941 48.5781C234.707 48.9062 235.309 49.3984 235.746 50.0547C236.191 50.7109 236.414 51.5312 236.414 52.5156V57.9414C236.414 58.6367 236.457 59.207 236.543 59.6523C236.629 60.0898 236.754 60.4727 236.918 60.8008V61H233.508C233.344 60.6562 233.219 60.2266 233.133 59.7109C233.055 59.1875 233.016 58.6641 233.016 58.1406ZM233.461 53.2773L233.484 55.1875H231.598C231.152 55.1875 230.766 55.2383 230.438 55.3398C230.109 55.4414 229.84 55.5859 229.629 55.7734C229.418 55.9531 229.262 56.1641 229.16 56.4062C229.066 56.6484 229.02 56.9141 229.02 57.2031C229.02 57.4922 229.086 57.7539 229.219 57.9883C229.352 58.2148 229.543 58.3945 229.793 58.5273C230.043 58.6523 230.336 58.7148 230.672 58.7148C231.18 58.7148 231.621 58.6133 231.996 58.4102C232.371 58.207 232.66 57.957 232.863 57.6602C233.074 57.3633 233.184 57.082 233.191 56.8164L234.082 58.2461C233.957 58.5664 233.785 58.8984 233.566 59.2422C233.355 59.5859 233.086 59.9102 232.758 60.2148C232.43 60.5117 232.035 60.7578 231.574 60.9531C231.113 61.1406 230.566 61.2344 229.934 61.2344C229.129 61.2344 228.398 61.0742 227.742 60.7539C227.094 60.4258 226.578 59.9766 226.195 59.4062C225.82 58.8281 225.633 58.1719 225.633 57.4375C225.633 56.7734 225.758 56.1836 226.008 55.668C226.258 55.1523 226.625 54.7188 227.109 54.3672C227.602 54.0078 228.215 53.7383 228.949 53.5586C229.684 53.3711 230.535 53.2773 231.504 53.2773H233.461ZM245.227 48.3203V50.7109H237.844V48.3203H245.227ZM239.672 45.1914H243.047V57.1797C243.047 57.5469 243.094 57.8281 243.188 58.0234C243.289 58.2188 243.438 58.3555 243.633 58.4336C243.828 58.5039 244.074 58.5391 244.371 58.5391C244.582 58.5391 244.77 58.5312 244.934 58.5156C245.105 58.4922 245.25 58.4688 245.367 58.4453L245.379 60.9297C245.09 61.0234 244.777 61.0977 244.441 61.1523C244.105 61.207 243.734 61.2344 243.328 61.2344C242.586 61.2344 241.938 61.1133 241.383 60.8711C240.836 60.6211 240.414 60.2227 240.117 59.6758C239.82 59.1289 239.672 58.4102 239.672 57.5195V45.1914ZM246.305 54.7891V54.543C246.305 53.6133 246.438 52.7578 246.703 51.9766C246.969 51.1875 247.355 50.5039 247.863 49.9258C248.371 49.3477 248.996 48.8984 249.738 48.5781C250.48 48.25 251.332 48.0859 252.293 48.0859C253.254 48.0859 254.109 48.25 254.859 48.5781C255.609 48.8984 256.238 49.3477 256.746 49.9258C257.262 50.5039 257.652 51.1875 257.918 51.9766C258.184 52.7578 258.316 53.6133 258.316 54.543V54.7891C258.316 55.7109 258.184 56.5664 257.918 57.3555C257.652 58.1367 257.262 58.8203 256.746 59.4062C256.238 59.9844 255.613 60.4336 254.871 60.7539C254.129 61.0742 253.277 61.2344 252.316 61.2344C251.355 61.2344 250.5 61.0742 249.75 60.7539C249.008 60.4336 248.379 59.9844 247.863 59.4062C247.355 58.8203 246.969 58.1367 246.703 57.3555C246.438 56.5664 246.305 55.7109 246.305 54.7891ZM249.68 54.543V54.7891C249.68 55.3203 249.727 55.8164 249.82 56.2773C249.914 56.7383 250.062 57.1445 250.266 57.4961C250.477 57.8398 250.75 58.1094 251.086 58.3047C251.422 58.5 251.832 58.5977 252.316 58.5977C252.785 58.5977 253.188 58.5 253.523 58.3047C253.859 58.1094 254.129 57.8398 254.332 57.4961C254.535 57.1445 254.684 56.7383 254.777 56.2773C254.879 55.8164 254.93 55.3203 254.93 54.7891V54.543C254.93 54.0273 254.879 53.543 254.777 53.0898C254.684 52.6289 254.531 52.2227 254.32 51.8711C254.117 51.5117 253.848 51.2305 253.512 51.0273C253.176 50.8242 252.77 50.7227 252.293 50.7227C251.816 50.7227 251.41 50.8242 251.074 51.0273C250.746 51.2305 250.477 51.5117 250.266 51.8711C250.062 52.2227 249.914 52.6289 249.82 53.0898C249.727 53.543 249.68 54.0273 249.68 54.543ZM263.766 51.0859V61H260.391V48.3203H263.566L263.766 51.0859ZM267.586 48.2383L267.527 51.3672C267.363 51.3438 267.164 51.3242 266.93 51.3086C266.703 51.2852 266.496 51.2734 266.309 51.2734C265.832 51.2734 265.418 51.3359 265.066 51.4609C264.723 51.5781 264.434 51.7539 264.199 51.9883C263.973 52.2227 263.801 52.5078 263.684 52.8438C263.574 53.1797 263.512 53.5625 263.496 53.9922L262.816 53.7812C262.816 52.9609 262.898 52.207 263.062 51.5195C263.227 50.8242 263.465 50.2188 263.777 49.7031C264.098 49.1875 264.488 48.7891 264.949 48.5078C265.41 48.2266 265.938 48.0859 266.531 48.0859C266.719 48.0859 266.91 48.1016 267.105 48.1328C267.301 48.1562 267.461 48.1914 267.586 48.2383Z" fill="#888888"/>
<path d="M113.18 109.93C113.18 109.398 113.102 108.922 112.945 108.5C112.789 108.062 112.5 107.656 112.078 107.281C111.656 106.906 111.047 106.531 110.25 106.156C109.469 105.766 108.438 105.359 107.156 104.938C105.656 104.438 104.211 103.875 102.82 103.25C101.43 102.609 100.188 101.867 99.0938 101.023C98 100.164 97.1328 99.1641 96.4922 98.0234C95.8516 96.8672 95.5312 95.5234 95.5312 93.9922C95.5312 92.5234 95.8594 91.2031 96.5156 90.0312C97.1719 88.8438 98.0859 87.8359 99.2578 87.0078C100.445 86.1641 101.836 85.5234 103.43 85.0859C105.023 84.6328 106.766 84.4062 108.656 84.4062C111.156 84.4062 113.359 84.8438 115.266 85.7188C117.188 86.5781 118.688 87.8047 119.766 89.3984C120.859 90.9766 121.406 92.8438 121.406 95H113.227C113.227 94.1406 113.047 93.3828 112.688 92.7266C112.344 92.0703 111.82 91.5547 111.117 91.1797C110.414 90.8047 109.531 90.6172 108.469 90.6172C107.438 90.6172 106.57 90.7734 105.867 91.0859C105.164 91.3984 104.633 91.8203 104.273 92.3516C103.914 92.8672 103.734 93.4375 103.734 94.0625C103.734 94.5781 103.875 95.0469 104.156 95.4688C104.453 95.875 104.867 96.2578 105.398 96.6172C105.945 96.9766 106.602 97.3203 107.367 97.6484C108.148 97.9766 109.023 98.2969 109.992 98.6094C111.805 99.1875 113.414 99.8359 114.82 100.555C116.242 101.258 117.438 102.062 118.406 102.969C119.391 103.859 120.133 104.875 120.633 106.016C121.148 107.156 121.406 108.445 121.406 109.883C121.406 111.414 121.109 112.773 120.516 113.961C119.922 115.148 119.07 116.156 117.961 116.984C116.852 117.797 115.523 118.414 113.977 118.836C112.43 119.258 110.703 119.469 108.797 119.469C107.047 119.469 105.32 119.25 103.617 118.812C101.93 118.359 100.398 117.672 99.0234 116.75C97.6484 115.812 96.5469 114.617 95.7188 113.164C94.9062 111.695 94.5 109.953 94.5 107.938H102.75C102.75 108.938 102.883 109.781 103.148 110.469C103.414 111.156 103.805 111.711 104.32 112.133C104.836 112.539 105.469 112.836 106.219 113.023C106.969 113.195 107.828 113.281 108.797 113.281C109.844 113.281 110.688 113.133 111.328 112.836C111.969 112.523 112.438 112.117 112.734 111.617C113.031 111.102 113.18 110.539 113.18 109.93ZM133.031 99.0547V119H125.133V93.6406H132.539L133.031 99.0547ZM132.094 105.453L130.242 105.5C130.242 103.562 130.477 101.836 130.945 100.32C131.414 98.7891 132.078 97.4922 132.938 96.4297C133.797 95.3672 134.82 94.5625 136.008 94.0156C137.211 93.4531 138.547 93.1719 140.016 93.1719C141.188 93.1719 142.258 93.3438 143.227 93.6875C144.211 94.0312 145.055 94.5859 145.758 95.3516C146.477 96.1172 147.023 97.1328 147.398 98.3984C147.789 99.6484 147.984 101.195 147.984 103.039V119H140.039V103.016C140.039 102 139.898 101.227 139.617 100.695C139.336 100.148 138.93 99.7734 138.398 99.5703C137.867 99.3672 137.219 99.2656 136.453 99.2656C135.641 99.2656 134.953 99.4219 134.391 99.7344C133.828 100.047 133.375 100.484 133.031 101.047C132.703 101.594 132.461 102.242 132.305 102.992C132.164 103.742 132.094 104.562 132.094 105.453ZM165.539 112.625V102.172C165.539 101.453 165.438 100.836 165.234 100.32C165.031 99.8047 164.711 99.4062 164.273 99.125C163.836 98.8281 163.25 98.6797 162.516 98.6797C161.922 98.6797 161.414 98.7812 160.992 98.9844C160.57 99.1875 160.25 99.4922 160.031 99.8984C159.812 100.305 159.703 100.82 159.703 101.445H151.805C151.805 100.273 152.062 99.1875 152.578 98.1875C153.109 97.1719 153.859 96.2891 154.828 95.5391C155.812 94.7891 156.984 94.2109 158.344 93.8047C159.719 93.3828 161.25 93.1719 162.938 93.1719C164.953 93.1719 166.75 93.5078 168.328 94.1797C169.922 94.8516 171.18 95.8594 172.102 97.2031C173.023 98.5312 173.484 100.203 173.484 102.219V112.602C173.484 114.258 173.578 115.516 173.766 116.375C173.953 117.219 174.219 117.961 174.562 118.602V119H166.641C166.266 118.219 165.984 117.266 165.797 116.141C165.625 115 165.539 113.828 165.539 112.625ZM166.5 103.508L166.547 107.727H163.055C162.32 107.727 161.695 107.828 161.18 108.031C160.68 108.234 160.273 108.516 159.961 108.875C159.664 109.219 159.445 109.609 159.305 110.047C159.18 110.484 159.117 110.945 159.117 111.43C159.117 111.898 159.227 112.32 159.445 112.695C159.68 113.055 159.992 113.336 160.383 113.539C160.773 113.742 161.211 113.844 161.695 113.844C162.57 113.844 163.312 113.68 163.922 113.352C164.547 113.008 165.023 112.594 165.352 112.109C165.68 111.625 165.844 111.172 165.844 110.75L167.578 113.984C167.266 114.609 166.906 115.242 166.5 115.883C166.109 116.523 165.617 117.117 165.023 117.664C164.445 118.195 163.734 118.633 162.891 118.977C162.047 119.305 161.023 119.469 159.82 119.469C158.258 119.469 156.82 119.148 155.508 118.508C154.211 117.867 153.172 116.977 152.391 115.836C151.609 114.68 151.219 113.352 151.219 111.852C151.219 110.539 151.453 109.367 151.922 108.336C152.406 107.305 153.133 106.43 154.102 105.711C155.07 104.992 156.305 104.445 157.805 104.07C159.305 103.695 161.07 103.508 163.102 103.508H166.5ZM185.836 98.5156V128.75H177.938V93.6406H185.297L185.836 98.5156ZM201.398 106.016V106.508C201.398 108.352 201.188 110.062 200.766 111.641C200.344 113.219 199.719 114.594 198.891 115.766C198.062 116.938 197.031 117.852 195.797 118.508C194.578 119.148 193.164 119.469 191.555 119.469C190.039 119.469 188.734 119.133 187.641 118.461C186.547 117.789 185.633 116.859 184.898 115.672C184.164 114.484 183.57 113.125 183.117 111.594C182.664 110.062 182.305 108.445 182.039 106.742V106.109C182.305 104.281 182.664 102.586 183.117 101.023C183.57 99.4453 184.164 98.0703 184.898 96.8984C185.633 95.7266 186.539 94.8125 187.617 94.1562C188.711 93.5 190.016 93.1719 191.531 93.1719C193.141 93.1719 194.555 93.4766 195.773 94.0859C197.008 94.6953 198.039 95.5703 198.867 96.7109C199.711 97.8359 200.344 99.1875 200.766 100.766C201.188 102.344 201.398 104.094 201.398 106.016ZM193.5 106.508V106.016C193.5 105.031 193.43 104.133 193.289 103.32C193.148 102.492 192.922 101.773 192.609 101.164C192.312 100.555 191.914 100.086 191.414 99.7578C190.914 99.4297 190.297 99.2656 189.562 99.2656C188.719 99.2656 188.008 99.3984 187.43 99.6641C186.867 99.9141 186.414 100.305 186.07 100.836C185.742 101.352 185.508 102 185.367 102.781C185.242 103.547 185.188 104.445 185.203 105.477V107.398C185.172 108.586 185.289 109.633 185.555 110.539C185.82 111.43 186.281 112.125 186.938 112.625C187.594 113.125 188.484 113.375 189.609 113.375C190.359 113.375 190.984 113.203 191.484 112.859C191.984 112.5 192.383 112.008 192.68 111.383C192.977 110.742 193.188 110.008 193.312 109.18C193.438 108.352 193.5 107.461 193.5 106.508ZM218.203 111.875C218.203 111.438 218.055 111.062 217.758 110.75C217.477 110.422 216.977 110.125 216.258 109.859C215.539 109.578 214.531 109.297 213.234 109.016C212 108.75 210.836 108.398 209.742 107.961C208.664 107.523 207.719 106.992 206.906 106.367C206.094 105.742 205.453 105 204.984 104.141C204.531 103.281 204.305 102.297 204.305 101.188C204.305 100.109 204.531 99.0938 204.984 98.1406C205.453 97.1719 206.133 96.3203 207.023 95.5859C207.93 94.8359 209.031 94.25 210.328 93.8281C211.625 93.3906 213.102 93.1719 214.758 93.1719C217.039 93.1719 219.008 93.5234 220.664 94.2266C222.32 94.9141 223.594 95.8828 224.484 97.1328C225.391 98.3672 225.844 99.7969 225.844 101.422H217.945C217.945 100.781 217.836 100.234 217.617 99.7812C217.414 99.3281 217.078 98.9844 216.609 98.75C216.141 98.5 215.516 98.375 214.734 98.375C214.188 98.375 213.688 98.4766 213.234 98.6797C212.797 98.8828 212.445 99.1641 212.18 99.5234C211.914 99.8828 211.781 100.305 211.781 100.789C211.781 101.133 211.859 101.445 212.016 101.727C212.188 101.992 212.445 102.242 212.789 102.477C213.133 102.695 213.57 102.898 214.102 103.086C214.633 103.258 215.273 103.414 216.023 103.555C217.727 103.867 219.32 104.312 220.805 104.891C222.289 105.469 223.492 106.289 224.414 107.352C225.352 108.414 225.82 109.844 225.82 111.641C225.82 112.766 225.562 113.805 225.047 114.758C224.531 115.695 223.789 116.523 222.82 117.242C221.852 117.945 220.688 118.492 219.328 118.883C217.969 119.273 216.438 119.469 214.734 119.469C212.312 119.469 210.266 119.039 208.594 118.18C206.922 117.305 205.656 116.211 204.797 114.898C203.953 113.57 203.531 112.227 203.531 110.867H210.891C210.922 111.648 211.109 112.289 211.453 112.789C211.812 113.289 212.289 113.656 212.883 113.891C213.477 114.125 214.164 114.242 214.945 114.242C215.664 114.242 216.258 114.141 216.727 113.938C217.211 113.734 217.578 113.461 217.828 113.117C218.078 112.758 218.203 112.344 218.203 111.875ZM237.258 83V119H229.359V83H237.258ZM236.32 105.453L234.469 105.5C234.469 103.719 234.688 102.078 235.125 100.578C235.562 99.0781 236.188 97.7734 237 96.6641C237.812 95.5547 238.789 94.6953 239.93 94.0859C241.07 93.4766 242.336 93.1719 243.727 93.1719C244.977 93.1719 246.117 93.3516 247.148 93.7109C248.195 94.0703 249.094 94.6484 249.844 95.4453C250.609 96.2422 251.195 97.2812 251.602 98.5625C252.023 99.8438 252.234 101.406 252.234 103.25V119H244.289V103.203C244.289 102.172 244.141 101.375 243.844 100.812C243.562 100.234 243.156 99.8359 242.625 99.6172C242.094 99.3828 241.445 99.2656 240.68 99.2656C239.758 99.2656 239.008 99.4219 238.43 99.7344C237.852 100.047 237.406 100.484 237.094 101.047C236.797 101.594 236.594 102.242 236.484 102.992C236.375 103.742 236.32 104.562 236.32 105.453ZM255.633 106.578V106.086C255.633 104.227 255.898 102.516 256.43 100.953C256.961 99.375 257.742 98.0078 258.773 96.8516C259.805 95.6953 261.078 94.7969 262.594 94.1562C264.109 93.5 265.859 93.1719 267.844 93.1719C269.844 93.1719 271.602 93.5 273.117 94.1562C274.648 94.7969 275.93 95.6953 276.961 96.8516C277.992 98.0078 278.773 99.375 279.305 100.953C279.836 102.516 280.102 104.227 280.102 106.086V106.578C280.102 108.422 279.836 110.133 279.305 111.711C278.773 113.273 277.992 114.641 276.961 115.812C275.93 116.969 274.656 117.867 273.141 118.508C271.625 119.148 269.875 119.469 267.891 119.469C265.906 119.469 264.148 119.148 262.617 118.508C261.086 117.867 259.805 116.969 258.773 115.812C257.742 114.641 256.961 113.273 256.43 111.711C255.898 110.133 255.633 108.422 255.633 106.578ZM263.531 106.086V106.578C263.531 107.531 263.602 108.422 263.742 109.25C263.883 110.078 264.117 110.805 264.445 111.43C264.773 112.039 265.219 112.516 265.781 112.859C266.344 113.203 267.047 113.375 267.891 113.375C268.719 113.375 269.406 113.203 269.953 112.859C270.516 112.516 270.961 112.039 271.289 111.43C271.617 110.805 271.852 110.078 271.992 109.25C272.133 108.422 272.203 107.531 272.203 106.578V106.086C272.203 105.164 272.133 104.297 271.992 103.484C271.852 102.656 271.617 101.93 271.289 101.305C270.961 100.664 270.516 100.164 269.953 99.8047C269.391 99.4453 268.688 99.2656 267.844 99.2656C267.016 99.2656 266.32 99.4453 265.758 99.8047C265.211 100.164 264.773 100.664 264.445 101.305C264.117 101.93 263.883 102.656 263.742 103.484C263.602 104.297 263.531 105.164 263.531 106.086ZM296.977 93.6406V99.125H281.695V93.6406H296.977ZM284.906 87.3359H292.805V110.727C292.805 111.398 292.883 111.922 293.039 112.297C293.195 112.656 293.461 112.914 293.836 113.07C294.227 113.211 294.742 113.281 295.383 113.281C295.836 113.281 296.211 113.273 296.508 113.258C296.805 113.227 297.086 113.188 297.352 113.141V118.789C296.68 119.008 295.977 119.172 295.242 119.281C294.508 119.406 293.727 119.469 292.898 119.469C291.211 119.469 289.766 119.203 288.562 118.672C287.375 118.141 286.469 117.305 285.844 116.164C285.219 115.023 284.906 113.539 284.906 111.711V87.3359ZM313.406 111.875C313.406 111.438 313.258 111.062 312.961 110.75C312.68 110.422 312.18 110.125 311.461 109.859C310.742 109.578 309.734 109.297 308.438 109.016C307.203 108.75 306.039 108.398 304.945 107.961C303.867 107.523 302.922 106.992 302.109 106.367C301.297 105.742 300.656 105 300.188 104.141C299.734 103.281 299.508 102.297 299.508 101.188C299.508 100.109 299.734 99.0938 300.188 98.1406C300.656 97.1719 301.336 96.3203 302.227 95.5859C303.133 94.8359 304.234 94.25 305.531 93.8281C306.828 93.3906 308.305 93.1719 309.961 93.1719C312.242 93.1719 314.211 93.5234 315.867 94.2266C317.523 94.9141 318.797 95.8828 319.688 97.1328C320.594 98.3672 321.047 99.7969 321.047 101.422H313.148C313.148 100.781 313.039 100.234 312.82 99.7812C312.617 99.3281 312.281 98.9844 311.812 98.75C311.344 98.5 310.719 98.375 309.938 98.375C309.391 98.375 308.891 98.4766 308.438 98.6797C308 98.8828 307.648 99.1641 307.383 99.5234C307.117 99.8828 306.984 100.305 306.984 100.789C306.984 101.133 307.062 101.445 307.219 101.727C307.391 101.992 307.648 102.242 307.992 102.477C308.336 102.695 308.773 102.898 309.305 103.086C309.836 103.258 310.477 103.414 311.227 103.555C312.93 103.867 314.523 104.312 316.008 104.891C317.492 105.469 318.695 106.289 319.617 107.352C320.555 108.414 321.023 109.844 321.023 111.641C321.023 112.766 320.766 113.805 320.25 114.758C319.734 115.695 318.992 116.523 318.023 117.242C317.055 117.945 315.891 118.492 314.531 118.883C313.172 119.273 311.641 119.469 309.938 119.469C307.516 119.469 305.469 119.039 303.797 118.18C302.125 117.305 300.859 116.211 300 114.898C299.156 113.57 298.734 112.227 298.734 110.867H306.094C306.125 111.648 306.312 112.289 306.656 112.789C307.016 113.289 307.492 113.656 308.086 113.891C308.68 114.125 309.367 114.242 310.148 114.242C310.867 114.242 311.461 114.141 311.93 113.938C312.414 113.734 312.781 113.461 313.031 113.117C313.281 112.758 313.406 112.344 313.406 111.875Z" fill="black"/>
<path d="M1134 0H1348C1356.28 0 1363 6.71573 1363 15V148C1363 156.284 1356.28 163 1348 163H1134V0Z" fill="#F6EE33"/>
<path fill-rule="evenodd" clip-rule="evenodd" d="M1202.75 46.5018C1202.75 45.3973 1203.65 44.5018 1204.75 44.5018H1292.25C1293.35 44.5018 1294.25 45.3973 1294.25 46.5018V116.498C1294.25 117.603 1293.35 118.498 1292.25 118.498H1204.75C1203.65 118.498 1202.75 117.603 1202.75 116.498V46.5018ZM1206.75 48.5018V52.9963H1290.25V48.5018H1206.75ZM1290.25 56.9963H1235.19V114.498H1290.25V56.9963ZM1231.19 114.498V56.9963H1206.75V114.498H1231.19Z" fill="white"/>
<path fill-rule="evenodd" clip-rule="evenodd" d="M1209.72 62.3022C1209.72 61.1976 1210.62 60.3022 1211.72 60.3022H1225.72C1226.83 60.3022 1227.72 61.1976 1227.72 62.3022V81.6974C1227.72 82.802 1226.83 83.6974 1225.72 83.6974H1211.72C1210.62 83.6974 1209.72 82.802 1209.72 81.6974V62.3022ZM1213.72 64.3022V79.6974H1223.72V64.3022H1213.72ZM1239.33 63.1982C1239.33 62.0936 1240.22 61.1982 1241.33 61.1982H1284.25C1285.36 61.1982 1286.25 62.0936 1286.25 63.1982V109.407C1286.25 110.511 1285.36 111.407 1284.25 111.407H1241.33C1240.22 111.407 1239.33 110.511 1239.33 109.407V63.1982ZM1243.33 65.1982V107.407H1282.25V65.1982H1243.33ZM1209.56 93.4381C1209.56 92.3336 1210.46 91.4381 1211.56 91.4381H1220.48C1221.59 91.4381 1222.48 92.3336 1222.48 93.4381C1222.48 94.5427 1221.59 95.4381 1220.48 95.4381H1211.56C1210.46 95.4381 1209.56 94.5427 1209.56 93.4381ZM1209.56 100.438C1209.56 99.3335 1210.46 98.4381 1211.56 98.4381H1226.1C1227.21 98.4381 1228.1 99.3335 1228.1 100.438C1228.1 101.543 1227.21 102.438 1226.1 102.438H1211.56C1210.46 102.438 1209.56 101.543 1209.56 100.438ZM1209.56 107.438C1209.56 106.334 1210.46 105.438 1211.56 105.438H1220.48C1221.59 105.438 1222.48 106.334 1222.48 107.438C1222.48 108.543 1221.59 109.438 1220.48 109.438H1211.56C1210.46 109.438 1209.56 108.543 1209.56 107.438Z" fill="white"/>
</svg>
